<svg xmlns="http://www.w3.org/2000/svg" width="30" height="30" viewBox="0 0 48 48" fill="none">
  <path d="M24.0078 0C13.9881 0 11.0577 0.0103393 10.488 0.0576049C8.43181 0.228573 7.1523 0.552416 5.75834 1.24663C4.68408 1.78021 3.83686 2.39873 3.00071 3.26575C1.47792 4.84693 0.555014 6.79221 0.220923 9.10452C0.0584916 10.2271 0.0112389 10.456 0.00164072 16.1899C-0.0020509 18.1012 0.00164072 20.6166 0.00164072 23.9906C0.00164072 34.005 0.0127156 36.9332 0.0607065 37.5019C0.226829 39.5033 0.540616 40.7625 1.20511 42.1398C2.47502 44.7763 4.90041 46.7556 7.75772 47.4941C8.74707 47.7489 9.83979 47.8892 11.2426 47.9557C11.837 47.9815 17.8949 48 23.9565 48C30.0182 48 36.0798 47.9926 36.6594 47.9631C38.2837 47.8866 39.2269 47.76 40.2698 47.4904C41.6865 47.127 43.0069 46.4586 44.1387 45.5319C45.2705 44.6052 46.1864 43.4425 46.8224 42.125C47.4739 40.7809 47.8044 39.4737 47.9539 37.5768C47.9863 37.1633 48 30.5694 48 23.9843C48 17.3981 47.9852 10.8164 47.9528 10.4028C47.8014 8.4753 47.471 7.17919 46.7984 5.80923C46.2465 4.68778 45.6337 3.8503 44.744 2.99398C43.1566 1.47705 41.2148 0.553893 38.9005 0.22008C37.7794 0.0579741 37.5561 0.00997007 31.8193 0H24.0078Z" fill="url(#paint0_radial_965_9152)"/>
  <path d="M24.0078 0C13.9881 0 11.0577 0.0103393 10.488 0.0576049C8.43181 0.228573 7.1523 0.552416 5.75834 1.24663C4.68408 1.78021 3.83686 2.39873 3.00071 3.26575C1.47792 4.84693 0.555014 6.79221 0.220923 9.10452C0.0584916 10.2271 0.0112389 10.456 0.00164072 16.1899C-0.0020509 18.1012 0.00164072 20.6166 0.00164072 23.9906C0.00164072 34.005 0.0127156 36.9332 0.0607065 37.5019C0.226829 39.5033 0.540616 40.7625 1.20511 42.1398C2.47502 44.7763 4.90041 46.7556 7.75772 47.4941C8.74707 47.7489 9.83979 47.8892 11.2426 47.9557C11.837 47.9815 17.8949 48 23.9565 48C30.0182 48 36.0798 47.9926 36.6594 47.9631C38.2837 47.8866 39.2269 47.76 40.2698 47.4904C41.6865 47.127 43.0069 46.4586 44.1387 45.5319C45.2705 44.6052 46.1864 43.4425 46.8224 42.125C47.4739 40.7809 47.8044 39.4737 47.9539 37.5768C47.9863 37.1633 48 30.5694 48 23.9843C48 17.3981 47.9852 10.8164 47.9528 10.4028C47.8014 8.4753 47.471 7.17919 46.7984 5.80923C46.2465 4.68778 45.6337 3.8503 44.744 2.99398C43.1566 1.47705 41.2148 0.553893 38.9005 0.22008C37.7794 0.0579741 37.5561 0.00997007 31.8193 0H24.0078Z" fill="url(#paint1_radial_965_9152)"/>
  <path d="M23.9967 6.27734C19.1843 6.27734 18.5804 6.29839 16.6903 6.38443C14.8039 6.47084 13.5162 6.76957 12.3896 7.20788C11.2241 7.6606 10.2355 8.26619 9.25058 9.25175C8.26492 10.2369 7.6595 11.2258 7.20543 12.3912C6.76613 13.5186 6.4671 14.8069 6.3822 16.6931C6.29803 18.5837 6.27588 19.1882 6.27588 24.0019C6.27588 28.8156 6.29729 29.4179 6.38294 31.3085C6.46969 33.1954 6.76834 34.4834 7.20617 35.6104C7.65913 36.7762 8.26455 37.7651 9.24984 38.7502C10.2344 39.7362 11.223 40.3432 12.3877 40.796C13.5151 41.2343 14.8031 41.533 16.6892 41.6194C18.5793 41.7054 19.1829 41.7265 23.9949 41.7265C28.8076 41.7265 29.4097 41.7054 31.2999 41.6194C33.1863 41.533 34.4754 41.2343 35.6028 40.796C36.7679 40.3432 37.755 39.7362 38.7396 38.7502C39.7252 37.7651 40.3306 36.7762 40.7847 35.6108C41.2203 34.4834 41.5193 33.1951 41.6079 31.3089C41.6928 29.4183 41.715 28.8156 41.715 24.0019C41.715 19.1882 41.6928 18.5841 41.6079 16.6935C41.5193 14.8066 41.2203 13.5186 40.7847 12.3916C40.3306 11.2258 39.7252 10.2369 38.7396 9.25175C37.7539 8.26582 36.7682 7.66023 35.6017 7.20788C34.4721 6.76957 33.1837 6.47084 31.2973 6.38443C29.4072 6.29839 28.8054 6.27734 23.9916 6.27734H23.9967ZM22.4071 9.47146C22.8789 9.47072 23.4053 9.47146 23.9967 9.47146C28.7279 9.47146 29.2887 9.48845 31.157 9.57338C32.8847 9.6524 33.8223 9.94116 34.4469 10.1838C35.2739 10.505 35.8634 10.8891 36.4832 11.5094C37.1034 12.1298 37.4874 12.7206 37.8093 13.5477C38.0518 14.1718 38.3409 15.1097 38.4195 16.8379C38.5044 18.7063 38.5229 19.2676 38.5229 23.9979C38.5229 28.7281 38.5044 29.2894 38.4195 31.1578C38.3405 32.886 38.0518 33.8239 37.8093 34.448C37.4881 35.2751 37.1034 35.8641 36.4832 36.4841C35.8631 37.1044 35.2742 37.4885 34.4469 37.8097C33.8231 38.0534 32.8847 38.3415 31.157 38.4205C29.289 38.5054 28.7279 38.5239 23.9967 38.5239C19.2652 38.5239 18.7044 38.5054 16.8365 38.4205C15.1088 38.3407 14.1711 38.052 13.5461 37.8094C12.7192 37.4881 12.1286 37.1041 11.5084 36.4837C10.8882 35.8634 10.5043 35.274 10.1823 34.4465C9.93981 33.8224 9.65075 32.8845 9.57212 31.1564C9.48721 29.2879 9.47023 28.7266 9.47023 23.9934C9.47023 19.2602 9.48721 18.7019 9.57212 16.8334C9.65112 15.1053 9.93981 14.1674 10.1823 13.5426C10.5035 12.7154 10.8882 12.1246 11.5084 11.5042C12.1286 10.8839 12.7192 10.4999 13.5461 10.1779C14.1708 9.93414 15.1088 9.64612 16.8365 9.56673C18.4711 9.49288 19.1046 9.47072 22.4071 9.46703V9.47146ZM33.4554 12.4145C33.0348 12.4145 32.6237 12.5392 32.274 12.773C31.9243 13.0067 31.6517 13.339 31.4908 13.7276C31.3299 14.1163 31.2878 14.544 31.3699 14.9566C31.452 15.3693 31.6546 15.7482 31.9521 16.0457C32.2495 16.3431 32.6285 16.5456 33.041 16.6276C33.4535 16.7096 33.8811 16.6674 34.2696 16.5063C34.6582 16.3452 34.9902 16.0724 35.2238 15.7226C35.4573 15.3727 35.5819 14.9614 35.5818 14.5407C35.5818 13.3664 34.6293 12.4137 33.4554 12.4137V12.4145ZM23.9967 14.8996C18.9713 14.8996 14.8969 18.9752 14.8969 24.0019C14.8969 29.0287 18.9713 33.1024 23.9967 33.1024C29.0221 33.1024 33.0955 29.0287 33.0955 24.0019C33.0955 18.9752 29.0218 14.8996 23.9964 14.8996H23.9967ZM23.9967 18.0937C27.2586 18.0937 29.9033 20.7388 29.9033 24.0019C29.9033 27.2647 27.2586 29.9101 23.9967 29.9101C20.7345 29.9101 18.0901 27.2647 18.0901 24.0019C18.0901 20.7388 20.7345 18.0937 23.9967 18.0937V18.0937Z" fill="white"/>
  <defs>
    <radialGradient id="paint0_radial_965_9152" cx="0" cy="0" r="1" gradientUnits="userSpaceOnUse" gradientTransform="translate(12.7501 51.697) rotate(-90) scale(47.5715 44.2453)">
      <stop stop-color="#FFDD55"/>
      <stop offset="0.1" stop-color="#FFDD55"/>
      <stop offset="0.5" stop-color="#FF543E"/>
      <stop offset="1" stop-color="#C837AB"/>
    </radialGradient>
    <radialGradient id="paint1_radial_965_9152" cx="0" cy="0" r="1" gradientUnits="userSpaceOnUse" gradientTransform="translate(-8.04025 3.45784) rotate(78.6806) scale(21.2647 87.6539)">
      <stop stop-color="#3771C8"/>
      <stop offset="0.128" stop-color="#3771C8"/>
      <stop offset="1" stop-color="#6600FF" stop-opacity="0"/>
    </radialGradient>
  </defs>
</svg>